<svg id="Layer_1" data-name="Layer 1" xmlns="http://www.w3.org/2000/svg" width="32" height="64" viewBox="0 0 32 64"><defs><style>.cls-1{fill:#4c4c4c;}.cls-2{fill:#dbdbdb;}.cls-3{fill:#fff;}.cls-4{fill:#919191;}</style></defs><title>stonegate_sprite</title><g id="r0aAPi"><path class="cls-1" d="M11.65,19H4.35a2,2,0,0,0-2,2q0,3,0,6a2,2,0,0,0,2,2h7.24a2,2,0,0,0,2-2q0-3,0-6A2,2,0,0,0,11.65,19Zm1,8a1,1,0,0,1-1.06,1H4.43a1,1,0,0,1-1.06-1q0-2.95,0-5.9a1,1,0,0,1,1.07-1h7.12a1,1,0,0,1,1.07,1Q12.64,24,12.63,27Z"/><path class="cls-1" d="M7.56,22.66c0,.32,0,.63,0,.95a.59.59,0,0,1-.6.6H5a.59.59,0,0,1-.6-.59q0-1,0-1.94a.6.6,0,0,1,.62-.6H6.94a.6.6,0,0,1,.62.64Q7.56,22.19,7.56,22.66Z"/><path class="cls-1" d="M8,25.69h3.13c.31,0,.46.15.46.47,0,.05,0,.11,0,.16a.39.39,0,0,1-.38.37H4.9c-.19,0-.36,0-.44-.22a.65.65,0,0,1,0-.62.39.39,0,0,1,.36-.16Z"/><path class="cls-1" d="M9.9,22.1H8.66a.4.4,0,0,1-.44-.44s0-.08,0-.13a.41.41,0,0,1,.45-.45h2.47a.41.41,0,0,1,.45.45c0,.05,0,.1,0,.15a.39.39,0,0,1-.41.4Z"/><path class="cls-1" d="M9.9,24.23H8.64a.4.4,0,0,1-.42-.42c0-.48.19-.6.59-.59q1.12,0,2.23,0c.37,0,.59.13.56.57a.83.83,0,0,1,0,.17.38.38,0,0,1-.37.27Z"/></g><path class="cls-1" d="M11.89,52.11a.37.37,0,0,0-.53,0L8,55.47,4.64,52.11a.37.37,0,0,0-.53.53L7.47,56,4.11,59.36a.37.37,0,0,0,.53.53L8,56.53l3.36,3.36a.37.37,0,1,0,.53-.53L8.53,56l3.36-3.36A.37.37,0,0,0,11.89,52.11Z"/><path class="cls-2" d="M10.49,38.81a.32.32,0,0,1-.23.55H5.74a.32.32,0,0,1-.23-.55l2.27-2.25a.32.32,0,0,1,.45,0l2.25,2.27Z"/><path class="cls-2" d="M10.26,40.65a.32.32,0,0,1,.23.55L8.22,43.46a.32.32,0,0,1-.45,0L5.51,41.19a.32.32,0,0,1,.23-.55Z"/><path class="cls-1" d="M27.87,53.51a.55.55,0,0,1,.39.94l-3.87,3.87a.54.54,0,0,1-.78,0l-3.87-3.87a.55.55,0,0,1,.39-.94Z"/><path id="Arrow_Forward" data-name="Arrow Forward" class="cls-3" d="M15.27,8a.47.47,0,0,0-.13-.32l-4.5-4.54a.45.45,0,0,0-.64,0,.46.46,0,0,0,0,.65l3.72,3.76H1.19a.46.46,0,0,0,0,.92H13.72L10,12.22a.46.46,0,0,0,0,.65.45.45,0,0,0,.64,0l4.5-4.54A.47.47,0,0,0,15.27,8Z"/><g id="icons"><path id="search" class="cls-4" d="M29.67,28.15l-2.62-2.62a4.76,4.76,0,0,0,.76-2.62,4.91,4.91,0,1,0-4.91,4.91,4.76,4.76,0,0,0,2.62-.76l2.62,2.62a1.08,1.08,0,0,0,.76.33A1.09,1.09,0,0,0,30,28.91.92.92,0,0,0,29.67,28.15Zm-9.49-5.24a2.73,2.73,0,1,1,2.73,2.73A2.7,2.7,0,0,1,20.18,22.91Z"/></g><path id="Arrow_Forward-2" data-name="Arrow Forward" class="cls-1" d="M31.27,8a.47.47,0,0,0-.13-.32l-4.5-4.54a.45.45,0,0,0-.64,0,.46.46,0,0,0,0,.65l3.72,3.76H17.19a.46.46,0,0,0,0,.92H29.72L26,12.22a.46.46,0,0,0,0,.65.45.45,0,0,0,.64,0l4.5-4.54A.47.47,0,0,0,31.27,8Z"/><path class="cls-2" d="M26.49,38.81a.32.32,0,0,1-.23.55H21.74a.32.32,0,0,1-.23-.55l2.27-2.25a.32.32,0,0,1,.45,0l2.25,2.27Z"/><path class="cls-1" d="M26.26,40.65a.32.32,0,0,1,.23.55l-2.27,2.25a.32.32,0,0,1-.45,0l-2.25-2.27a.32.32,0,0,1,.23-.55Z"/></svg>